<svg xmlns="http://www.w3.org/2000/svg" viewBox="0 0 1200 800" role="img" aria-label="G533 Wireless Hero product shot image">
  <defs>
    <linearGradient id="g" x1="0" y1="0" x2="1" y2="1">
      <stop offset="0%" stop-color="#0c1220"/>
      <stop offset="100%" stop-color="#090d13"/>
    </linearGradient>
  </defs>
  <rect width="1200" height="800" fill="url(#g)"/>
  <rect x="38" y="38" width="1124" height="724" fill="none" stroke="rgba(255,255,255,0.11)"/>
  <text x="72" y="82" font-size="24" font-weight="800" fill="#7aa2ff" font-family="Inter,Segoe UI,sans-serif" letter-spacing="1.8">LOGITECH</text>
  <text x="1080" y="82" text-anchor="end" font-size="20" font-weight="700" fill="#8fa0b7" font-family="Inter,Segoe UI,sans-serif">HERO PRODUCT SHOT</text>
  <text x="72" y="122" font-size="42" font-weight="700" fill="#f3f6fb" font-family="Inter,Segoe UI,sans-serif">G533 Wireless</text>
  <text x="72" y="310" font-size="28" fill="#9fb0c6" font-family="Inter,Segoe UI,sans-serif">G Series · 2017 · $149.99</text>
  <text x="72" y="420" font-size="22" fill="#b8c3d6" font-family="Inter,Segoe UI,sans-serif">• Pro-G audio drivers</text><text x="72" y="454" font-size="22" fill="#b8c3d6" font-family="Inter,Segoe UI,sans-serif">• DTS Headphone:X surround</text><text x="72" y="488" font-size="22" fill="#b8c3d6" font-family="Inter,Segoe UI,sans-serif">• 15-hour battery life</text>
  <g transform="translate(775 120)" fill="none" stroke="#7aa2ff" stroke-width="18" stroke-linecap="round" stroke-linejoin="round">
    <path d="M94 145c0-84 67-151 151-151s151 67 151 151" opacity="0.95"/>
    <rect x="26" y="132" rx="24" ry="24" width="96" height="192"/>
    <rect x="272" y="132" rx="24" ry="24" width="96" height="192"/>
    <path d="M76 324v74c0 22 18 40 40 40h36" opacity="0.82"/>
    <path d="M160 438h62" opacity="0.88"/>
  </g>
  <text x="72" y="724" font-size="18" fill="#708096" font-family="Inter,Segoe UI,sans-serif">Prepared for official product-photo replacement · source candidate: https://ir.logitech.com/press-releases/press-release-details/2017/Logitech-G-Unleashes-Advanced-Audio-Performance-With-New-PC-Wireless-Gaming-Headset/default.aspx</text>
</svg>